<svg width="55" height="55" viewBox="0 0 55 55" fill="none" xmlns="http://www.w3.org/2000/svg">
<path d="M25.5704 27.355L40.4584 12.4671C40.7939 12.1315 40.7939 11.5874 40.4584 11.2518C40.1227 10.9162 39.5787 10.9162 39.243 11.2518L24.3551 26.1396L9.46714 11.2517C9.13155 10.9161 8.58746 10.9161 8.25188 11.2517C7.91618 11.5873 7.91618 12.1314 8.25188 12.467L23.1397 27.355L8.25177 42.2429C7.91608 42.5786 7.91608 43.1226 8.25177 43.4583C8.41956 43.6261 8.63946 43.71 8.85946 43.71C9.07946 43.71 9.29935 43.6261 9.46714 43.4583L24.3551 28.5704L39.243 43.4583C39.4109 43.6261 39.6307 43.71 39.8507 43.71C40.0707 43.71 40.2906 43.6261 40.4584 43.4583C40.7939 43.1226 40.7939 42.5786 40.4584 42.2429L25.5704 27.355Z" fill="white"/>
</svg>
